<svg width="165" height="62" viewBox="0 0 165 62" fill="none" xmlns="http://www.w3.org/2000/svg">
<path d="M64.7962 60.1744C61.649 61.0146 58.6048 60.3237 55.6637 58.1019C52.7469 55.8381 50.5162 51.8347 48.9716 46.0915C47.4181 40.3152 47.3292 35.2978 48.7049 31.0391C50.1138 26.7715 52.425 24.2088 55.6385 23.3509C58.8521 22.493 61.9007 23.2004 64.7844 25.4729C67.7012 27.7367 69.9275 31.7236 71.4632 37.4338C72.9989 43.1441 73.0668 48.1494 71.6668 52.45C70.2668 56.7505 67.9766 59.3253 64.7962 60.1744ZM57.2727 29.2294C55.8151 29.6185 54.9023 31.2419 54.5346 34.0995C54.158 36.924 54.4934 40.2837 55.5409 44.1785C56.5795 48.0403 57.7991 50.7925 59.1995 52.4351C60.6243 54.0359 62.0158 54.655 63.3741 54.2924C64.7324 53.9297 65.5788 52.3241 65.9135 49.4754C66.2812 46.6178 65.9457 43.2581 64.9071 39.3963C63.8597 35.5015 62.6401 32.7493 61.2485 31.1397C59.89 29.5212 58.5648 28.8845 57.2727 29.2294Z" fill="#2B2928"/>
<path d="M71.2234 58.4655C71.8632 46.6987 72.183 36.2066 72.183 26.9892C72.183 17.7719 72.1584 11.7169 72.1092 8.82422C77.5223 6.27474 83.1569 5 89.0129 5C93.3434 5 96.9603 6.3728 99.8637 9.11839C102.816 11.864 104.293 15.7372 104.293 20.7381C104.293 26.5235 100.184 32.0882 91.9655 37.4323C96.4436 43.0215 101.02 49.1746 105.695 55.8915L98.6089 61.113C95.5086 56.4553 89.9479 48.8559 81.9266 38.3148C81.779 45.8652 81.5575 52.9498 81.2623 59.5686L71.2234 58.4655ZM82.1481 33.3139C85.7896 31.5979 88.8899 29.4897 91.4488 26.9892C94.0077 24.4398 95.2872 22.1354 95.2872 20.0762C95.2872 18.017 94.672 16.4236 93.4418 15.296C92.2607 14.1683 90.686 13.6045 88.7176 13.6045C86.7492 13.6045 84.584 14.0212 82.2219 14.8547C82.2219 23.1405 82.1973 29.2936 82.1481 33.3139Z" fill="#2B2928"/>
<path d="M108.502 23.6531C112.69 23.6531 115.911 25.2933 118.165 28.5738C120.456 31.8542 121.601 35.83 121.601 40.501C121.601 44.1024 121.029 47.5076 119.883 50.7168C118.738 53.8902 116.949 56.5645 114.515 58.7396C112.081 60.879 109.236 61.9487 105.979 61.9487C105.335 61.9487 102.832 61.6122 98.6089 61.113C99.1099 53.4468 99.4298 47.1867 99.4298 42.1591C99.4298 37.1314 99.2687 31.5689 98.9466 25.4716C102.418 24.2593 105.603 23.6531 108.502 23.6531ZM107.321 55.4235C108.968 55.4235 110.596 53.9794 112.206 51.0912C113.853 48.1673 114.676 45.0295 114.676 41.6777C114.676 38.2903 114.085 35.509 112.904 33.334C111.759 31.1589 110.381 30.0714 108.771 30.0714C107.912 30.0714 107.107 30.214 106.355 30.4992C106.498 35.7765 106.57 40.2158 106.57 43.8171C106.57 47.3828 106.462 51.109 106.248 54.9956C106.498 55.2809 106.856 55.4235 107.321 55.4235Z" fill="#2B2928"/>
<path d="M121.305 61.3281C120.655 51.0752 120.331 41.6933 120.331 33.1824C120.331 24.6218 120.605 16.8575 121.155 9.88947L131.121 10.7854C130.372 19.346 129.997 27.5334 129.997 35.3475C129.997 43.1616 130.122 48.9102 130.372 52.5932C132.17 52.3444 136.591 51.8467 143.635 51.1001L145.134 59.7603C141.387 60.2082 136.092 60.9548 129.248 62L121.305 61.3281Z" fill="#2B2928"/>
<path d="M141.972 60.2907C141.799 53.4832 141.712 47.0419 141.712 40.9668C141.712 34.8917 142.058 26.9855 142.75 17.2482C150.145 16.128 157.367 15.5679 164.416 15.5679V23.5171C159.529 23.5171 154.989 23.6679 150.794 23.9695C150.621 28.7951 150.513 32.5005 150.47 35.0856C153.756 34.6117 157.648 34.3316 162.146 34.2455L163.378 41.3546C160.481 41.3977 156.135 41.7208 150.34 42.324C150.34 47.4943 150.361 51.2212 150.405 53.5047C154.167 53.2031 158.665 52.5568 163.897 51.5659L165 58.675C161.324 60.3553 156.978 61.1955 151.962 61.1955L141.972 60.2907Z" fill="#2B2928"/>
<path d="M25.8561 10.9235L33.9087 11.6456C34.2845 15.9244 34.8482 21.5939 35.5998 28.654C36.405 35.6606 36.9687 40.6347 37.2908 43.5765L37.6934 43.4962C41.505 27.1296 43.9744 14.3199 45.1018 5.06685L55.6506 5.94937C52.6443 23.6531 48.2423 41.8382 42.4444 60.5046L34.714 59.8628C32.8887 53.5515 30.8487 45.288 28.594 35.0722C26.2856 46.0903 24.0846 54.8886 21.9909 61.4674L14.2605 60.8255C9.69733 38.1477 6.61051 19.7486 5 5.62845L15.3878 6.51096C16.2468 15.55 17.5888 27.9052 19.4141 43.5765L19.8167 43.4962C22.9304 29.2156 24.9435 18.358 25.8561 10.9235Z" fill="#2B2928"/>
<path d="M52.3571 55.4969L52.3571 55.4969L52.3623 55.5008C55.4079 57.8016 58.6083 58.5429 61.9252 57.6575C64.4664 56.979 66.4401 55.273 67.8725 52.6208C67.8251 53.5517 67.7757 54.4909 67.7242 55.4383L67.6985 55.9108L68.1688 55.9625L78.2077 57.0656L78.738 57.1239L78.7618 56.5909C79.0385 50.3887 79.2503 43.7785 79.3974 36.7604C86.952 46.7087 92.2149 53.9164 95.1926 58.3901L95.3207 58.5825L95.5502 58.6096C96.7956 58.7568 97.8826 58.8888 98.8202 59.0026C99.4785 59.0826 100.063 59.1536 100.577 59.2146C101.794 59.3591 102.619 59.4487 102.979 59.4487C106.357 59.4487 109.32 58.3352 111.845 56.1151L111.848 56.1124C114.276 53.9425 116.078 51.2882 117.254 48.1575C117.4 51.457 117.584 54.8578 117.806 58.3597L117.833 58.79L118.263 58.8263L126.206 59.4982L126.265 59.5032L126.323 59.4943C131.149 58.7573 135.202 58.1693 138.483 57.7299L138.483 57.7485L138.927 57.7886L148.916 58.6934L148.939 58.6955H148.962C154.033 58.6955 158.453 57.8462 162.208 56.1297L162.552 55.9724L162.494 55.5983L161.391 48.4892L161.312 47.9784L160.804 48.0746C155.827 49.0171 151.525 49.6455 147.895 49.9619C147.86 47.7271 147.841 44.3321 147.84 39.7749C153.407 39.2019 157.586 38.8961 160.386 38.8545L160.971 38.8458L160.871 38.2692L159.638 31.16L159.565 30.7373L159.136 30.7455C154.886 30.827 151.167 31.0811 147.98 31.5097C148.027 29.0519 148.126 25.6947 148.278 21.4367C152.334 21.1571 156.713 21.0171 161.416 21.0171H161.916V20.5171V12.5679V12.0679H161.416C154.341 12.0679 147.094 12.6301 139.675 13.7538L139.28 13.8137L139.252 14.2127C138.559 23.9557 138.212 31.875 138.212 37.9668C138.212 41.1595 138.236 44.4531 138.284 47.8476C133.131 48.399 129.647 48.7922 127.836 49.0268C127.611 45.3485 127.497 39.7912 127.497 32.3475C127.497 24.5493 127.871 16.3765 128.619 7.82896L128.663 7.33203L128.166 7.28736L118.2 6.39148L117.696 6.34622L117.656 6.85016C117.166 13.066 116.894 19.911 116.841 27.3845C116.466 26.6584 116.045 25.9599 115.576 25.289C113.223 21.8657 109.844 20.1531 105.502 20.1531C104.216 20.1531 102.878 20.2696 101.489 20.5015C101.691 19.5886 101.793 18.6675 101.793 17.7381C101.793 12.635 100.283 8.61568 97.2058 5.75371C94.2016 2.91353 90.4587 1.5 86.0129 1.5C80.0816 1.5 74.3744 2.79172 68.8962 5.37188L68.6038 5.50959L68.6093 5.83272C68.6584 8.72038 68.683 14.771 68.683 23.9892C68.683 26.8821 68.6515 29.901 68.5884 33.046C67.0564 27.946 64.9062 24.2635 62.0922 22.0789C59.1 19.7216 55.892 18.9649 52.5096 19.8678C51.4391 20.1536 50.4683 20.6163 49.5954 21.2502C50.939 15.1226 52.1218 9.05024 53.1436 3.03307L53.2347 2.49648L52.6923 2.45111L42.1435 1.56859L41.6637 1.52845L41.6054 2.00638C40.5195 10.9197 38.1823 23.1583 34.5897 38.7296C34.2542 35.7168 33.7565 31.3397 33.0967 25.5989C32.3454 18.5412 31.7822 12.8758 31.4068 8.60183L31.3702 8.18495L30.9534 8.14757L22.9008 7.42552L22.4188 7.3823L22.3599 7.8626C21.4867 14.9759 19.6006 25.2479 16.6978 38.6866C14.9809 23.8831 13.7103 12.1426 12.8856 3.46366L12.8461 3.04809L12.4301 3.01276L2.04233 2.13025L1.43404 2.07857L1.50322 2.68511C3.11602 16.8253 6.20586 35.2398 10.7703 57.9242L10.8444 58.2927L11.2191 58.3238L18.9495 58.9657L19.3466 58.9986L19.4674 58.619C21.4231 52.4737 23.469 44.4088 25.6059 34.4296C27.6645 43.6217 29.5404 51.1467 31.2337 57.0017L31.3293 57.3326L31.6726 57.3611L39.4031 58.0029L39.8029 58.0361L39.9219 57.6529C41.7028 51.9192 43.3523 46.2306 44.8702 40.587C45.0418 41.4482 45.248 42.3263 45.4887 43.2213C47.0456 49.0103 49.3158 53.1365 52.3571 55.4969ZM95.8866 42.5767C93.8039 39.7843 91.7413 37.1083 89.6988 34.5488C92.0595 32.9819 94.0837 31.3876 95.7634 29.7652C95.8743 33.0815 95.9298 36.2128 95.9298 39.1591C95.9298 40.2401 95.9149 41.3787 95.8866 42.5767ZM104.321 51.9235C104.068 51.9235 103.89 51.8706 103.76 51.785C103.966 47.9758 104.07 44.3199 104.07 40.8171C104.07 37.2934 104.001 32.9714 103.865 27.8519C104.461 27.6656 105.095 27.5714 105.771 27.5714C107.109 27.5714 108.353 28.4612 109.462 30.5669L109.465 30.5726C110.594 32.6524 111.176 35.3444 111.176 38.6777C111.176 41.9434 110.375 44.9968 108.771 47.8459L108.77 47.8477C107.979 49.2655 107.202 50.2957 106.446 50.9663C105.693 51.6339 104.987 51.9235 104.321 51.9235ZM52.0302 31.1655L52.0305 31.1633C52.2102 29.7671 52.5183 28.7174 52.9308 27.9838C53.3376 27.2603 53.8323 26.8645 54.4017 26.7125C55.4102 26.4433 56.5519 26.8961 57.8655 28.4611L57.8655 28.4612L57.8703 28.4667C59.1859 29.9884 60.3819 32.6502 61.4243 36.5262C62.4521 40.3477 62.7744 43.6387 62.4175 46.4115L62.4175 46.4115L62.4169 46.417C62.2531 47.8116 61.9681 48.8569 61.5854 49.583C61.2071 50.3004 60.753 50.6737 60.2451 50.8093C59.1564 51.0999 57.9472 50.6451 56.5766 49.1067C55.251 47.5497 54.0559 44.8865 53.0238 41.0487C51.9868 37.1931 51.6652 33.9034 52.0302 31.1655ZM90.0965 12.6576L90.0964 12.6577L90.1039 12.6646C91.2075 13.6761 91.7872 15.1219 91.7872 17.0762C91.7872 18.9316 90.6268 21.113 88.0976 23.6333C85.7536 25.9234 82.9419 27.8841 79.6573 29.5125C79.6997 25.553 79.7212 19.7855 79.7219 12.2109C81.9131 11.4689 83.9103 11.1045 85.7176 11.1045C87.5855 11.1045 89.027 11.6364 90.0965 12.6576Z" fill="white" stroke="black"/>
</svg>
